STARTFONT 2.1
FONT -DEC-Terminal-Bold-R-Narrow--39-280-100-100-C-140-iso8859-4
SIZE 28 100 100
FONTBOUNDINGBOX 14 40 0 -10

STARTPROPERTIES 24
FOUNDRY "Monotype"
FAMILY_NAME "VT"
WEIGHT_NAME "Bold"
SLANT "R"
SETWIDTH_NAME "Narrow"
ADD_STYLE_NAME ""
PIXEL_SIZE 39
POINT_SIZE 280
RESOLUTION_X 100
RESOLUTION_Y 100
SPACING "C"
AVERAGE_WIDTH 140
CHARSET_REGISTRY "iso8859"
CHARSET_ENCODING "4"
FACE_NAME "VT Narrow Bold ISO Latin4"
_DEC_DEVICE_FONTNAMES "PS=vt-narrow-bold-isolatin4"
COPYRIGHT "Copyright (c) 1993 Monotype Typography Ltd."
CAP_HEIGHT 22
X_HEIGHT 17
WEIGHT 10
QUAD_WIDTH 14
DEFAULT_CHAR 160
FONT_DESCENT 10
FONT_ASCENT 30
ENDPROPERTIES

CHARS 191

STARTCHAR space
ENCODING 32
SWIDTH 361 0
DWIDTH 14 0
BBX 14 40 0 -10
BITMAP
0000
0000
0000
0000
0000
0000
0000
0000
0000
0000
0000
0000
0000
0000
0000
0000
0000
0000
0000
0000
0000
0000
0000
0000
0000
0000
0000
0000
0000
0000
0000
0000
0000
0000
0000
0000
0000
0000
0000
0000
ENDCHAR

STARTCHAR exclam
ENCODING 33
SWIDTH 361 0
DWIDTH 14 0
BBX 14 40 0 -10
BITMAP
0000
0000
0000
0000
0000
0000
0000
0000
0780
0780
0780
0780
0780
0780
0780
0780
0780
0780
0780
0780
0780
0780
0000
0000
0000
0780
0FC0
0FC0
0FC0
0780
0000
0000
0000
0000
0000
0000
0000
0000
0000
0000
ENDCHAR

STARTCHAR quotedbl
ENCODING 34
SWIDTH 361 0
DWIDTH 14 0
BBX 14 40 0 -10
BITMAP
0000
0000
1CE0
1CE0
1CE0
1CE0
1CE0
1CE0
1CE0
1CE0
1CE0
1CE0
0000
0000
0000
0000
0000
0000
0000
0000
0000
0000
0000
0000
0000
0000
0000
0000
0000
0000
0000
0000
0000
0000
0000
0000
0000
0000
0000
0000
ENDCHAR

STARTCHAR numbersign
ENCODING 35
SWIDTH 361 0
DWIDTH 14 0
BBX 14 40 0 -10
BITMAP
0000
0000
0000
0000
0000
0000
0000
0000
1CE0
1CE0
1CE0
1CE0
1CE0
1CE0
1CE0
FFF8
FFF8
FFF8
FFF8
39C0
39C0
39C0
39C0
FFF8
FFF8
FFF8
FFF8
39C0
39C0
39C0
39C0
39C0
39C0
39C0
0000
0000
0000
0000
0000
0000
ENDCHAR

STARTCHAR dollar
ENCODING 36
SWIDTH 361 0
DWIDTH 14 0
BBX 14 40 0 -10
BITMAP
0000
0000
0000
0000
0000
0000
0380
0380
0380
0380
0FD8
3FF8
3FF8
7C78
7838
7838
7800
7C00
3F00
3FC0
0FF0
03F0
00F8
0078
0078
7078
78F8
7FF0
7FF0
67C0
0700
0700
0700
0700
0700
0700
0000
0000
0000
0000
ENDCHAR

STARTCHAR percent
ENCODING 37
SWIDTH 361 0
DWIDTH 14 0
BBX 14 40 0 -10
BITMAP
0000
0000
0000
0000
0000
0000
0000
0000
3F00
7F80
F3C0
F3C0
F3C0
F3C0
7F80
3F1C
007C
03FC
0FE0
3F80
FC00
F000
C3F0
07F8
0F3C
0F3C
0F3C
0F3C
07F8
03F0
0000
0000
0000
0000
0000
0000
0000
0000
0000
0000
ENDCHAR

STARTCHAR ampersand
ENCODING 38
SWIDTH 361 0
DWIDTH 14 0
BBX 14 40 0 -10
BITMAP
0000
0000
0000
0000
0000
0000
0000
0000
07B0
07F0
1FF0
1F70
1E30
1E00
1E00
1E00
0E00
0F00
0700
3F80
3F98
7FD8
79D8
79F8
78F0
78F0
7FF8
7FF8
1F38
1E38
0000
0000
0000
0000
0000
0000
0000
0000
0000
0000
ENDCHAR

STARTCHAR quoteright
ENCODING 39
SWIDTH 361 0
DWIDTH 14 0
BBX 14 40 0 -10
BITMAP
0000
0000
07C0
0780
0780
0F00
0F00
0E00
1E00
1C00
1C00
0000
0000
0000
0000
0000
0000
0000
0000
0000
0000
0000
0000
0000
0000
0000
0000
0000
0000
0000
0000
0000
0000
0000
0000
0000
0000
0000
0000
0000
ENDCHAR

STARTCHAR parenleft
ENCODING 40
SWIDTH 361 0
DWIDTH 14 0
BBX 14 40 0 -10
BITMAP
0000
0000
01E0
03C0
0780
0780
0F00
0F00
1E00
1E00
1E00
3C00
3C00
3C00
3C00
3C00
3C00
3C00
3C00
3C00
3C00
3C00
3C00
3C00
3C00
1E00
1E00
1E00
0F00
0F00
0780
0780
03C0
01E0
0000
0000
0000
0000
0000
0000
ENDCHAR

STARTCHAR parenright
ENCODING 41
SWIDTH 361 0
DWIDTH 14 0
BBX 14 40 0 -10
BITMAP
0000
0000
3C00
1E00
0F00
0F00
0780
0780
03C0
03C0
03C0
01E0
01E0
01E0
01E0
01E0
01E0
01E0
01E0
01E0
01E0
01E0
01E0
01E0
01E0
03C0
03C0
03C0
0780
0780
0F00
0F00
1E00
3C00
0000
0000
0000
0000
0000
0000
ENDCHAR

STARTCHAR asterisk
ENCODING 42
SWIDTH 354 0
DWIDTH 14 0
BBX 14 40 0 -10
BITMAP
0000
0000
0000
0000
0000
0000
0000
0000
0000
0000
0000
0000
0000
0300
0300
0300
0300
3330
3B70
3FF0
0FC0
0780
0FC0
1CE0
3870
3030
0000
0000
0000
0000
0000
0000
0000
0000
0000
0000
0000
0000
0000
0000
ENDCHAR

STARTCHAR plus
ENCODING 43
SWIDTH 361 0
DWIDTH 14 0
BBX 14 40 0 -10
BITMAP
0000
0000
0000
0000
0000
0000
0000
0000
0000
0000
0000
0000
0780
0780
0780
0780
0780
0780
7FF8
7FF8
7FF8
7FF8
0780
0780
0780
0780
0780
0780
0000
0000
0000
0000
0000
0000
0000
0000
0000
0000
0000
0000
ENDCHAR

STARTCHAR comma
ENCODING 44
SWIDTH 361 0
DWIDTH 14 0
BBX 14 40 0 -10
BITMAP
0000
0000
0000
0000
0000
0000
0000
0000
0000
0000
0000
0000
0000
0000
0000
0000
0000
0000
0000
0000
0000
0000
0000
0000
0000
07C0
0780
0780
0F00
0F00
0E00
1E00
1C00
1C00
0000
0000
0000
0000
0000
0000
ENDCHAR

STARTCHAR minus
ENCODING 45
SWIDTH 361 0
DWIDTH 14 0
BBX 14 40 0 -10
BITMAP
0000
0000
0000
0000
0000
0000
0000
0000
0000
0000
0000
0000
0000
0000
0000
0000
0000
0000
0000
0000
1FE0
1FE0
1FE0
1FE0
0000
0000
0000
0000
0000
0000
0000
0000
0000
0000
0000
0000
0000
0000
0000
0000
ENDCHAR

STARTCHAR period
ENCODING 46
SWIDTH 361 0
DWIDTH 14 0
BBX 14 40 0 -10
BITMAP
0000
0000
0000
0000
0000
0000
0000
0000
0000
0000
0000
0000
0000
0000
0000
0000
0000
0000
0000
0000
0000
0000
0000
0000
0000
0780
0FC0
0FC0
0FC0
0780
0000
0000
0000
0000
0000
0000
0000
0000
0000
0000
ENDCHAR

STARTCHAR slash
ENCODING 47
SWIDTH 361 0
DWIDTH 14 0
BBX 14 40 0 -10
BITMAP
0000
0000
0000
0000
0000
0000
0078
0078
00F0
00F0
00F0
00F0
01E0
01E0
01E0
03C0
03C0
03C0
03C0
0780
0780
0780
0F00
0F00
0F00
1E00
1E00
1E00
1E00
3C00
3C00
0000
0000
0000
0000
0000
0000
0000
0000
0000
ENDCHAR

STARTCHAR zero
ENCODING 48
SWIDTH 361 0
DWIDTH 14 0
BBX 14 40 0 -10
BITMAP
0000
0000
0000
0000
0000
0000
0000
0000
0FC0
1FE0
3FF0
3FF0
7CF8
7878
7878
7878
7878
7878
7878
7878
7878
7878
7878
7878
7878
7CF8
3FF0
3FF0
1FE0
0FC0
0000
0000
0000
0000
0000
0000
0000
0000
0000
0000
ENDCHAR

STARTCHAR one
ENCODING 49
SWIDTH 361 0
DWIDTH 14 0
BBX 14 40 0 -10
BITMAP
0000
0000
0000
0000
0000
0000
0000
0000
0780
0780
7F80
7F80
7F80
7F80
0780
0780
0780
0780
0780
0780
0780
0780
0780
0780
0780
0780
7FF8
7FF8
7FF8
7FF8
0000
0000
0000
0000
0000
0000
0000
0000
0000
0000
ENDCHAR

STARTCHAR two
ENCODING 50
SWIDTH 361 0
DWIDTH 14 0
BBX 14 40 0 -10
BITMAP
0000
0000
0000
0000
0000
0000
0000
0000
0FC0
3FF0
3FF0
7DF8
7078
7078
7078
0078
0070
00F0
00E0
01E0
03C0
0380
0780
0F00
1E18
3C18
7FF8
7FF8
7FF8
7FF8
0000
0000
0000
0000
0000
0000
0000
0000
0000
0000
ENDCHAR

STARTCHAR three
ENCODING 51
SWIDTH 361 0
DWIDTH 14 0
BBX 14 40 0 -10
BITMAP
0000
0000
0000
0000
0000
0000
0000
0000
0FC0
3FF0
3FF0
7FF8
7078
7078
0078
0078
0070
07F0
07E0
07F0
0078
0078
0078
0078
7078
7078
7FF8
3FF0
3FF0
0FC0
0000
0000
0000
0000
0000
0000
0000
0000
0000
0000
ENDCHAR

STARTCHAR four
ENCODING 52
SWIDTH 361 0
DWIDTH 14 0
BBX 14 40 0 -10
BITMAP
0000
0000
0000
0000
0000
0000
0000
0000
01E0
03E0
03E0
07E0
07E0
0FE0
0DE0
1DE0
19E0
39E0
31E0
71E0
7FF8
7FF8
7FF8
7FF8
01E0
01E0
1FF8
1FF8
1FF8
1FF8
0000
0000
0000
0000
0000
0000
0000
0000
0000
0000
ENDCHAR

STARTCHAR five
ENCODING 53
SWIDTH 361 0
DWIDTH 14 0
BBX 14 40 0 -10
BITMAP
0000
0000
0000
0000
0000
0000
0000
0000
7FF8
7FF8
7FF8
7FF8
7800
7800
7800
77C0
7FF0
7FF0
7FF8
7878
7878
0078
0078
0078
7878
7878
7FF8
3FF0
3FF0
0FC0
0000
0000
0000
0000
0000
0000
0000
0000
0000
0000
ENDCHAR

STARTCHAR six
ENCODING 54
SWIDTH 361 0
DWIDTH 14 0
BBX 14 40 0 -10
BITMAP
0000
0000
0000
0000
0000
0000
0000
0000
01F8
07F8
0FF8
1FF8
3E00
3C00
3C00
7BC0
7FF0
7FF0
7FF8
7878
7878
7878
7878
7878
7878
7878
7FF8
3FF0
3FF0
0FC0
0000
0000
0000
0000
0000
0000
0000
0000
0000
0000
ENDCHAR

STARTCHAR seven
ENCODING 55
SWIDTH 361 0
DWIDTH 14 0
BBX 14 40 0 -10
BITMAP
0000
0000
0000
0000
0000
0000
0000
0000
7FF8
7FF8
7FF8
7FF8
6078
6078
0070
0070
00F0
00F0
00E0
00E0
01E0
01E0
01C0
03C0
0380
0380
0780
0780
0700
0F00
0000
0000
0000
0000
0000
0000
0000
0000
0000
0000
ENDCHAR

STARTCHAR eight
ENCODING 56
SWIDTH 361 0
DWIDTH 14 0
BBX 14 40 0 -10
BITMAP
0000
0000
0000
0000
0000
0000
0000
0000
0780
1FE0
3FF0
3FF0
7878
7878
7878
7878
3870
3FF0
1FE0
3FF0
3FF0
7878
7878
7878
7878
7878
7FF8
3FF0
3FF0
0FC0
0000
0000
0000
0000
0000
0000
0000
0000
0000
0000
ENDCHAR

STARTCHAR nine
ENCODING 57
SWIDTH 361 0
DWIDTH 14 0
BBX 14 40 0 -10
BITMAP
0000
0000
0000
0000
0000
0000
0000
0000
0FC0
3FF0
3FF0
7FF8
7878
7878
7878
7878
7878
7878
7878
7FF8
3FF8
3FF8
0F78
00F0
00F0
01F0
7FE0
7FC0
7F80
7E00
0000
0000
0000
0000
0000
0000
0000
0000
0000
0000
ENDCHAR

STARTCHAR colon
ENCODING 58
SWIDTH 361 0
DWIDTH 14 0
BBX 14 40 0 -10
BITMAP
0000
0000
0000
0000
0000
0000
0000
0000
0000
0000
0000
0000
0000
0000
0780
0FC0
0FC0
0FC0
0780
0000
0000
0000
0000
0000
0000
0780
0FC0
0FC0
0FC0
0780
0000
0000
0000
0000
0000
0000
0000
0000
0000
0000
ENDCHAR

STARTCHAR semicolon
ENCODING 59
SWIDTH 361 0
DWIDTH 14 0
BBX 14 40 0 -10
BITMAP
0000
0000
0000
0000
0000
0000
0000
0000
0000
0000
0000
0000
0000
0000
0780
0FC0
0FC0
0FC0
0780
0000
0000
0000
0000
0000
0000
07C0
0780
0780
0F00
0F00
0E00
1E00
1C00
1C00
0000
0000
0000
0000
0000
0000
ENDCHAR

STARTCHAR less
ENCODING 60
SWIDTH 361 0
DWIDTH 14 0
BBX 14 40 0 -10
BITMAP
0000
0000
0000
0000
0000
0000
0000
0000
0000
0000
0000
0000
0008
0038
00F8
03F8
0FE0
3F80
FE00
F800
F800
FE00
3F80
0FE0
03F8
00F8
0038
0008
0000
0000
0000
0000
0000
0000
0000
0000
0000
0000
0000
0000
ENDCHAR

STARTCHAR equal
ENCODING 61
SWIDTH 361 0
DWIDTH 14 0
BBX 14 40 0 -10
BITMAP
0000
0000
0000
0000
0000
0000
0000
0000
0000
0000
0000
0000
0000
0000
7FF8
7FF8
7FF8
7FF8
0000
0000
0000
0000
7FF8
7FF8
7FF8
7FF8
0000
0000
0000
0000
0000
0000
0000
0000
0000
0000
0000
0000
0000
0000
ENDCHAR

STARTCHAR greater
ENCODING 62
SWIDTH 361 0
DWIDTH 14 0
BBX 14 40 0 -10
BITMAP
0000
0000
0000
0000
0000
0000
0000
0000
0000
0000
0000
0000
8000
E000
F800
FE00
3F80
0FE0
03F8
00F8
00F8
03F8
0FE0
3F80
FE00
F800
E000
8000
0000
0000
0000
0000
0000
0000
0000
0000
0000
0000
0000
0000
ENDCHAR

STARTCHAR question
ENCODING 63
SWIDTH 361 0
DWIDTH 14 0
BBX 14 40 0 -10
BITMAP
0000
0000
0000
0000
0000
0000
0000
0000
0FC0
3FF0
3FF0
7DF8
7078
0078
00F8
01F0
03E0
03C0
0780
0780
0780
0780
0000
0000
0000
0780
0FC0
0FC0
0FC0
0780
0000
0000
0000
0000
0000
0000
0000
0000
0000
0000
ENDCHAR

STARTCHAR at
ENCODING 64
SWIDTH 361 0
DWIDTH 14 0
BBX 14 40 0 -10
BITMAP
0000
0000
0000
0000
0000
0000
0FC0
3FE0
3FF0
7FF0
7870
7070
7070
7070
73F0
73F0
77F0
77F0
7770
7770
7770
7770
77F8
77F8
73D8
73D8
7000
7000
7018
7818
3EF8
3FF0
1FE0
0780
0000
0000
0000
0000
0000
0000
ENDCHAR

STARTCHAR A
ENCODING 65
SWIDTH 361 0
DWIDTH 14 0
BBX 14 40 0 -10
BITMAP
0000
0000
0000
0000
0000
0000
0000
0000
0780
0FC0
0FC0
1FE0
1FE0
3CF0
3CF0
7878
7878
7878
7878
7878
7FF8
7FF8
7FF8
7FF8
7878
7878
7878
7878
7878
7878
0000
0000
0000
0000
0000
0000
0000
0000
0000
0000
ENDCHAR

STARTCHAR B
ENCODING 66
SWIDTH 361 0
DWIDTH 14 0
BBX 14 40 0 -10
BITMAP
0000
0000
0000
0000
0000
0000
0000
0000
7FC0
7FF0
7FF0
7FF8
7878
7878
7878
7878
7FF8
7FF0
7FE0
7FF0
7870
7878
7878
7878
7878
7878
7FF8
7FF0
7FE0
7FC0
0000
0000
0000
0000
0000
0000
0000
0000
0000
0000
ENDCHAR

STARTCHAR C
ENCODING 67
SWIDTH 361 0
DWIDTH 14 0
BBX 14 40 0 -10
BITMAP
0000
0000
0000
0000
0000
0000
0000
0000
0738
1FB8
1FF8
3FF8
3C78
7838
7838
7838
7800
7800
7800
7800
7800
7800
7800
7800
7838
3C78
3FF8
1FF0
1FE0
07C0
0000
0000
0000
0000
0000
0000
0000
0000
0000
0000
ENDCHAR

STARTCHAR D
ENCODING 68
SWIDTH 361 0
DWIDTH 14 0
BBX 14 40 0 -10
BITMAP
0000
0000
0000
0000
0000
0000
0000
0000
7F80
7FE0
7FF0
7FF0
78F8
7878
7878
7878
7878
7878
7878
7878
7878
7878
7878
7878
7878
78F8
7FF0
7FF0
7FE0
7F80
0000
0000
0000
0000
0000
0000
0000
0000
0000
0000
ENDCHAR

STARTCHAR E
ENCODING 69
SWIDTH 361 0
DWIDTH 14 0
BBX 14 40 0 -10
BITMAP
0000
0000
0000
0000
0000
0000
0000
0000
7FF8
7FF8
7FF8
7FF8
7800
7800
7800
7800
7FE0
7FE0
7FE0
7FE0
7800
7800
7800
7800
7800
7800
7FF8
7FF8
7FF8
7FF8
0000
0000
0000
0000
0000
0000
0000
0000
0000
0000
ENDCHAR

STARTCHAR F
ENCODING 70
SWIDTH 361 0
DWIDTH 14 0
BBX 14 40 0 -10
BITMAP
0000
0000
0000
0000
0000
0000
0000
0000
7FF8
7FF8
7FF8
7FF8
7800
7800
7800
7800
7FE0
7FE0
7FE0
7FE0
7800
7800
7800
7800
7800
7800
7800
7800
7800
7800
0000
0000
0000
0000
0000
0000
0000
0000
0000
0000
ENDCHAR

STARTCHAR G
ENCODING 71
SWIDTH 361 0
DWIDTH 14 0
BBX 14 40 0 -10
BITMAP
0000
0000
0000
0000
0000
0000
0000
0000
0738
1FB8
1FF8
3FF8
3C78
7838
7838
7838
7800
7800
79F8
79F8
79F8
79F8
7878
7878
7878
3C78
3FF8
1FF0
1FF0
07C0
0000
0000
0000
0000
0000
0000
0000
0000
0000
0000
ENDCHAR

STARTCHAR H
ENCODING 72
SWIDTH 361 0
DWIDTH 14 0
BBX 14 40 0 -10
BITMAP
0000
0000
0000
0000
0000
0000
0000
0000
7878
7878
7878
7878
7878
7878
7878
7878
7FF8
7FF8
7FF8
7FF8
7878
7878
7878
7878
7878
7878
7878
7878
7878
7878
0000
0000
0000
0000
0000
0000
0000
0000
0000
0000
ENDCHAR

STARTCHAR I
ENCODING 73
SWIDTH 361 0
DWIDTH 14 0
BBX 14 40 0 -10
BITMAP
0000
0000
0000
0000
0000
0000
0000
0000
7FF8
7FF8
7FF8
7FF8
0780
0780
0780
0780
0780
0780
0780
0780
0780
0780
0780
0780
0780
0780
7FF8
7FF8
7FF8
7FF8
0000
0000
0000
0000
0000
0000
0000
0000
0000
0000
ENDCHAR

STARTCHAR J
ENCODING 74
SWIDTH 361 0
DWIDTH 14 0
BBX 14 40 0 -10
BITMAP
0000
0000
0000
0000
0000
0000
0000
0000
1FF8
1FF8
1FF8
1FF8
01E0
01E0
01E0
01E0
01E0
01E0
01E0
E1E0
E1E0
E1E0
E1E0
E1E0
E1E0
E1E0
FFE0
FFC0
7FC0
3F80
0000
0000
0000
0000
0000
0000
0000
0000
0000
0000
ENDCHAR

STARTCHAR K
ENCODING 75
SWIDTH 361 0
DWIDTH 14 0
BBX 14 40 0 -10
BITMAP
0000
0000
0000
0000
0000
0000
0000
0000
7878
7878
78F8
78F8
79E0
79E0
7BC0
7BC0
7F80
7F80
7F80
7FC0
7BC0
79E0
79E0
78F0
78F0
78F0
7878
7878
7878
7878
0000
0000
0000
0000
0000
0000
0000
0000
0000
0000
ENDCHAR

STARTCHAR L
ENCODING 76
SWIDTH 361 0
DWIDTH 14 0
BBX 14 40 0 -10
BITMAP
0000
0000
0000
0000
0000
0000
0000
0000
7F80
7F80
7F80
7F80
1E00
1E00
1E00
1E00
1E00
1E00
1E00
1E00
1E00
1E00
1E18
1E18
1E18
1E18
7FF8
7FF8
7FF8
7FF8
0000
0000
0000
0000
0000
0000
0000
0000
0000
0000
ENDCHAR

STARTCHAR M
ENCODING 77
SWIDTH 361 0
DWIDTH 14 0
BBX 14 40 0 -10
BITMAP
0000
0000
0000
0000
0000
0000
0000
0000
7038
7038
7878
7878
7878
7878
7CF8
7CF8
7CF8
7CF8
77B8
77B8
7B78
7B78
7B78
7B78
7878
7878
7878
7878
7878
7878
0000
0000
0000
0000
0000
0000
0000
0000
0000
0000
ENDCHAR

STARTCHAR N
ENCODING 78
SWIDTH 361 0
DWIDTH 14 0
BBX 14 40 0 -10
BITMAP
0000
0000
0000
0000
0000
0000
0000
0000
7878
7878
7C78
7C78
7C78
7C78
7C78
7E78
7E78
7E78
7B78
7B78
7B78
7BF8
79F8
79F8
79F8
78F8
78F8
78F8
7878
7878
0000
0000
0000
0000
0000
0000
0000
0000
0000
0000
ENDCHAR

STARTCHAR O
ENCODING 79
SWIDTH 361 0
DWIDTH 14 0
BBX 14 40 0 -10
BITMAP
0000
0000
0000
0000
0000
0000
0000
0000
0780
1FE0
1FE0
3FF0
3CF0
7878
7878
7878
7878
7878
7878
7878
7878
7878
7878
7878
7878
3CF0
3FF0
1FE0
1FE0
0780
0000
0000
0000
0000
0000
0000
0000
0000
0000
0000
ENDCHAR

STARTCHAR P
ENCODING 80
SWIDTH 361 0
DWIDTH 14 0
BBX 14 40 0 -10
BITMAP
0000
0000
0000
0000
0000
0000
0000
0000
7FC0
7FF0
7FF0
7FF8
7878
7878
7878
7878
7878
7878
7FF8
7FE0
7FE0
7F80
7800
7800
7800
7800
7E00
7E00
7E00
7E00
0000
0000
0000
0000
0000
0000
0000
0000
0000
0000
ENDCHAR

STARTCHAR Q
ENCODING 81
SWIDTH 361 0
DWIDTH 14 0
BBX 14 40 0 -10
BITMAP
0000
0000
0000
0000
0000
0000
0000
0000
0780
1FE0
1FE0
3FF0
3CF0
7878
7878
7878
7878
7878
7878
7878
7878
7878
7878
7878
7878
3CF0
3FF0
1FE0
1FE0
0F80
1C00
1C00
3E18
3F18
77F8
73F8
61F0
60E0
0000
0000
ENDCHAR

STARTCHAR R
ENCODING 82
SWIDTH 361 0
DWIDTH 14 0
BBX 14 40 0 -10
BITMAP
0000
0000
0000
0000
0000
0000
0000
0000
7FC0
7FF0
7FF0
7FF8
7878
7878
7878
7878
7878
7878
7FF0
7FF0
7FC0
7FC0
79E0
79E0
78E0
78F0
78F0
7878
7878
7838
0000
0000
0000
0000
0000
0000
0000
0000
0000
0000
ENDCHAR

STARTCHAR S
ENCODING 83
SWIDTH 361 0
DWIDTH 14 0
BBX 14 40 0 -10
BITMAP
0000
0000
0000
0000
0000
0000
0000
0000
0FB8
3FF8
3FF8
7FF8
7838
7838
7800
7800
7800
7E00
3FC0
3FF0
0FF0
00F8
0078
0078
7078
7078
7FF8
7FF0
7FF0
67C0
0000
0000
0000
0000
0000
0000
0000
0000
0000
0000
ENDCHAR

STARTCHAR T
ENCODING 84
SWIDTH 361 0
DWIDTH 14 0
BBX 14 40 0 -10
BITMAP
0000
0000
0000
0000
0000
0000
0000
0000
7FF8
7FF8
7FF8
7FF8
6798
6798
6798
6798
0780
0780
0780
0780
0780
0780
0780
0780
0780
0780
1FE0
1FE0
1FE0
1FE0
0000
0000
0000
0000
0000
0000
0000
0000
0000
0000
ENDCHAR

STARTCHAR U
ENCODING 85
SWIDTH 361 0
DWIDTH 14 0
BBX 14 40 0 -10
BITMAP
0000
0000
0000
0000
0000
0000
0000
0000
7878
7878
7878
7878
7878
7878
7878
7878
7878
7878
7878
7878
7878
7878
7878
7878
7878
7878
7FF8
3FF0
3FF0
0FC0
0000
0000
0000
0000
0000
0000
0000
0000
0000
0000
ENDCHAR

STARTCHAR V
ENCODING 86
SWIDTH 361 0
DWIDTH 14 0
BBX 14 40 0 -10
BITMAP
0000
0000
0000
0000
0000
0000
0000
0000
7878
7878
7878
7878
7878
7878
7878
7878
7878
7878
7878
7878
7878
7878
3CF0
3CF0
1CE0
1FE0
0FC0
0FC0
0780
0780
0000
0000
0000
0000
0000
0000
0000
0000
0000
0000
ENDCHAR

STARTCHAR W
ENCODING 87
SWIDTH 361 0
DWIDTH 14 0
BBX 14 40 0 -10
BITMAP
0000
0000
0000
0000
0000
0000
0000
0000
7878
7878
7878
7878
7878
7878
7878
7878
7B78
7B78
7B78
7B78
7FF8
7FF8
3CF0
7CF8
3CF0
3870
3870
3870
3870
3870
0000
0000
0000
0000
0000
0000
0000
0000
0000
0000
ENDCHAR

STARTCHAR X
ENCODING 88
SWIDTH 361 0
DWIDTH 14 0
BBX 14 40 0 -10
BITMAP
0000
0000
0000
0000
0000
0000
0000
0000
7878
7878
7878
7878
3CF0
3CF0
1FE0
1FE0
0FC0
0FC0
0780
0780
0FC0
0FC0
1FE0
1FE0
3CF0
3CF0
7878
7878
7878
7878
0000
0000
0000
0000
0000
0000
0000
0000
0000
0000
ENDCHAR

STARTCHAR Y
ENCODING 89
SWIDTH 355 0
DWIDTH 14 0
BBX 14 40 0 -10
BITMAP
0000
0000
0000
0000
0000
0000
0000
0000
7878
7878
7878
7878
3870
3870
3CF0
1CE0
1CE0
1CE0
0FC0
0FC0
0FC0
0780
0780
0780
0780
0780
1FE0
1FE0
1FE0
1FE0
0000
0000
0000
0000
0000
0000
0000
0000
0000
0000
ENDCHAR

STARTCHAR Z
ENCODING 90
SWIDTH 361 0
DWIDTH 14 0
BBX 14 40 0 -10
BITMAP
0000
0000
0000
0000
0000
0000
0000
0000
7FF8
7FF8
7FF8
7FF8
60F0
60F0
01E0
01E0
03C0
03C0
0780
0780
0F00
0F00
1E18
1E18
3C18
3C18
7FF8
7FF8
7FF8
7FF8
0000
0000
0000
0000
0000
0000
0000
0000
0000
0000
ENDCHAR

STARTCHAR bracketleft
ENCODING 91
SWIDTH 361 0
DWIDTH 14 0
BBX 14 40 0 -10
BITMAP
0000
0000
0FC0
0FC0
0FC0
0FC0
0F00
0F00
0F00
0F00
0F00
0F00
0F00
0F00
0F00
0F00
0F00
0F00
0F00
0F00
0F00
0F00
0F00
0F00
0F00
0F00
0F00
0F00
0F00
0F00
0FC0
0FC0
0FC0
0FC0
0000
0000
0000
0000
0000
0000
ENDCHAR

STARTCHAR backslash
ENCODING 92
SWIDTH 361 0
DWIDTH 14 0
BBX 14 40 0 -10
BITMAP
0000
0000
0000
0000
0000
0000
F000
F000
7800
7800
7800
7800
3C00
3C00
3C00
1E00
1E00
1E00
1E00
0F00
0F00
0F00
0780
0780
0780
03C0
03C0
03C0
03C0
01E0
01E0
0000
0000
0000
0000
0000
0000
0000
0000
0000
ENDCHAR

STARTCHAR bracketright
ENCODING 93
SWIDTH 361 0
DWIDTH 14 0
BBX 14 40 0 -10
BITMAP
0000
0000
0FC0
0FC0
0FC0
0FC0
03C0
03C0
03C0
03C0
03C0
03C0
03C0
03C0
03C0
03C0
03C0
03C0
03C0
03C0
03C0
03C0
03C0
03C0
03C0
03C0
03C0
03C0
03C0
03C0
0FC0
0FC0
0FC0
0FC0
0000
0000
0000
0000
0000
0000
ENDCHAR

STARTCHAR asciicircum
ENCODING 94
SWIDTH 361 0
DWIDTH 14 0
BBX 14 40 0 -10
BITMAP
0000
0000
0300
0780
0FC0
1FE0
3CF0
7878
F03C
0000
0000
0000
0000
0000
0000
0000
0000
0000
0000
0000
0000
0000
0000
0000
0000
0000
0000
0000
0000
0000
0000
0000
0000
0000
0000
0000
0000
0000
0000
0000
ENDCHAR

STARTCHAR underscore
ENCODING 95
SWIDTH 361 0
DWIDTH 14 0
BBX 14 40 0 -10
BITMAP
0000
0000
0000
0000
0000
0000
0000
0000
0000
0000
0000
0000
0000
0000
0000
0000
0000
0000
0000
0000
0000
0000
0000
0000
0000
0000
FFFC
FFFC
FFFC
FFFC
0000
0000
0000
0000
0000
0000
0000
0000
0000
0000
ENDCHAR

STARTCHAR quoteleft
ENCODING 96
SWIDTH 361 0
DWIDTH 14 0
BBX 14 40 0 -10
BITMAP
0000
0000
1F00
0F00
0780
0780
03C0
03C0
01E0
01E0
0000
0000
0000
0000
0000
0000
0000
0000
0000
0000
0000
0000
0000
0000
0000
0000
0000
0000
0000
0000
0000
0000
0000
0000
0000
0000
0000
0000
0000
0000
ENDCHAR

STARTCHAR a
ENCODING 97
SWIDTH 361 0
DWIDTH 14 0
BBX 14 40 0 -10
BITMAP
0000
0000
0000
0000
0000
0000
0000
0000
0000
0000
0000
0000
1FE0
3FF0
3FF8
3FF8
0078
0078
0FF8
3FF8
3FF8
7FF8
7878
7878
7878
7878
7FF8
3FF8
3F78
0E78
0000
0000
0000
0000
0000
0000
0000
0000
0000
0000
ENDCHAR

STARTCHAR b
ENCODING 98
SWIDTH 361 0
DWIDTH 14 0
BBX 14 40 0 -10
BITMAP
0000
0000
0000
0000
0000
0000
7800
7800
7800
7800
7800
7800
79C0
7BF0
7FF0
7FF8
7CF8
7878
7878
7878
7878
7878
7878
7878
7878
7CF8
7FF8
7FF0
7BF0
79C0
0000
0000
0000
0000
0000
0000
0000
0000
0000
0000
ENDCHAR

STARTCHAR c
ENCODING 99
SWIDTH 361 0
DWIDTH 14 0
BBX 14 40 0 -10
BITMAP
0000
0000
0000
0000
0000
0000
0000
0000
0000
0000
0000
0000
0F38
3FB8
3FF8
7FF8
7878
7838
7838
7800
7800
7800
7800
7800
7838
7838
7FF8
3FF0
3FF0
0FC0
0000
0000
0000
0000
0000
0000
0000
0000
0000
0000
ENDCHAR

STARTCHAR d
ENCODING 100
SWIDTH 361 0
DWIDTH 14 0
BBX 14 40 0 -10
BITMAP
0000
0000
0000
0000
0000
0000
0078
0078
0078
0078
0078
0078
0E78
3F78
3FF8
7FF8
7CF8
7878
7878
7878
7878
7878
7878
7878
7878
7CF8
7FF8
3FF8
3F78
0E78
0000
0000
0000
0000
0000
0000
0000
0000
0000
0000
ENDCHAR

STARTCHAR e
ENCODING 101
SWIDTH 361 0
DWIDTH 14 0
BBX 14 40 0 -10
BITMAP
0000
0000
0000
0000
0000
0000
0000
0000
0000
0000
0000
0000
0FC0
3FF0
3FF0
7FF8
7878
7878
7FF8
7FF8
7FF8
7FF8
7800
7800
7838
7838
7FF8
3FF0
3FF0
0FC0
0000
0000
0000
0000
0000
0000
0000
0000
0000
0000
ENDCHAR

STARTCHAR f
ENCODING 102
SWIDTH 361 0
DWIDTH 14 0
BBX 14 40 0 -10
BITMAP
0000
0000
0000
0000
0000
0000
03E0
0FF8
0FF8
1FF8
1E00
1E00
FFF0
FFF0
FFF0
FFF0
1E00
1E00
1E00
1E00
1E00
1E00
1E00
1E00
1E00
1E00
FFF0
FFF0
FFF0
FFF0
0000
0000
0000
0000
0000
0000
0000
0000
0000
0000
ENDCHAR

STARTCHAR g
ENCODING 103
SWIDTH 361 0
DWIDTH 14 0
BBX 14 40 0 -10
BITMAP
0000
0000
0000
0000
0000
0000
0000
0000
0000
0000
0000
0000
0E78
3F78
3FF8
7FF8
7CF8
7878
7878
7878
7878
7878
7878
7878
7878
7CF8
7FF8
3FF8
3F78
0E78
0078
0078
0078
0078
1FF8
1FF0
1FF0
1FC0
0000
0000
ENDCHAR

STARTCHAR h
ENCODING 104
SWIDTH 361 0
DWIDTH 14 0
BBX 14 40 0 -10
BITMAP
0000
0000
0000
0000
0000
0000
7800
7800
7800
7800
7800
7800
79E0
7BF0
7FF0
7FF8
7C78
7878
7878
7878
7878
7878
7878
7878
7878
7878
7878
7878
7878
7878
0000
0000
0000
0000
0000
0000
0000
0000
0000
0000
ENDCHAR

STARTCHAR i
ENCODING 105
SWIDTH 350 0
DWIDTH 14 0
BBX 14 40 0 -10
BITMAP
0000
0000
0000
0000
0780
0780
0780
0780
0780
0780
0000
0000
3F80
3F80
3F80
3F80
0780
0780
0780
0780
0780
0780
0780
0780
0780
0780
7FF8
7FF8
7FF8
7FF8
0000
0000
0000
0000
0000
0000
0000
0000
0000
0000
ENDCHAR

STARTCHAR j
ENCODING 106
SWIDTH 361 0
DWIDTH 14 0
BBX 14 40 0 -10
BITMAP
0000
0000
0000
0000
01E0
01E0
01E0
01E0
01E0
01E0
0000
0000
1FE0
1FE0
1FE0
1FE0
01E0
01E0
01E0
01E0
01E0
01E0
01E0
01E0
01E0
01E0
01E0
01E0
01E0
01E0
01E0
01E0
01E0
01E0
1FE0
1FC0
1FC0
1F00
0000
0000
ENDCHAR

STARTCHAR k
ENCODING 107
SWIDTH 361 0
DWIDTH 14 0
BBX 14 40 0 -10
BITMAP
0000
0000
0000
0000
0000
0000
7800
7800
7800
7800
7800
7800
7878
7878
78F8
78F8
79E0
79E0
7BC0
7BC0
7F80
7F80
7FC0
7FC0
79E0
79E0
78F8
78F8
7878
7878
0000
0000
0000
0000
0000
0000
0000
0000
0000
0000
ENDCHAR

STARTCHAR l
ENCODING 108
SWIDTH 361 0
DWIDTH 14 0
BBX 14 40 0 -10
BITMAP
0000
0000
0000
0000
0000
0000
1F80
1F80
1F80
1F80
0780
0780
0780
0780
0780
0780
0780
0780
0780
0780
0780
0780
0780
0780
0780
0780
7FF8
7FF8
7FF8
7FF8
0000
0000
0000
0000
0000
0000
0000
0000
0000
0000
ENDCHAR

STARTCHAR m
ENCODING 109
SWIDTH 361 0
DWIDTH 14 0
BBX 14 40 0 -10
BITMAP
0000
0000
0000
0000
0000
0000
0000
0000
0000
0000
0000
0000
DEF0
DEF0
FFF8
FFF8
E738
E738
E738
E738
E738
E738
E738
E738
E738
E738
E738
E738
E738
E738
0000
0000
0000
0000
0000
0000
0000
0000
0000
0000
ENDCHAR

STARTCHAR n
ENCODING 110
SWIDTH 361 0
DWIDTH 14 0
BBX 14 40 0 -10
BITMAP
0000
0000
0000
0000
0000
0000
0000
0000
0000
0000
0000
0000
79E0
7BF0
7FF0
7FF8
7C78
7878
7878
7878
7878
7878
7878
7878
7878
7878
7878
7878
7878
7878
0000
0000
0000
0000
0000
0000
0000
0000
0000
0000
ENDCHAR

STARTCHAR o
ENCODING 111
SWIDTH 361 0
DWIDTH 14 0
BBX 14 40 0 -10
BITMAP
0000
0000
0000
0000
0000
0000
0000
0000
0000
0000
0000
0000
0FC0
3FF0
3FF0
7FF8
7878
7878
7878
7878
7878
7878
7878
7878
7878
7878
7FF8
3FF0
3FF0
0FC0
0000
0000
0000
0000
0000
0000
0000
0000
0000
0000
ENDCHAR

STARTCHAR p
ENCODING 112
SWIDTH 362 0
DWIDTH 14 0
BBX 14 40 0 -10
BITMAP
0000
0000
0000
0000
0000
0000
0000
0000
0000
0000
0000
0000
79C0
7BF0
7FF0
7FF8
7CF8
7878
7878
7878
7878
7878
7878
7878
7878
7CF8
7FF8
7FF0
7BF0
79C0
7800
7800
7800
7800
FE00
FE00
FE00
FE00
0000
0000
ENDCHAR

STARTCHAR q
ENCODING 113
SWIDTH 362 0
DWIDTH 14 0
BBX 14 40 0 -10
BITMAP
0000
0000
0000
0000
0000
0000
0000
0000
0000
0000
0000
0000
0E78
3F78
3FF8
7FF8
7CF8
7878
7878
7878
7878
7878
7878
7878
7878
7CF8
7FF8
3FF8
3F78
0E78
0078
0078
0078
0078
03F8
03F8
03F8
03F8
0000
0000
ENDCHAR

STARTCHAR r
ENCODING 114
SWIDTH 361 0
DWIDTH 14 0
BBX 14 40 0 -10
BITMAP
0000
0000
0000
0000
0000
0000
0000
0000
0000
0000
0000
0000
7C70
7CF8
7FFC
7FFC
7F1C
1E00
1E00
1E00
1E00
1E00
1E00
1E00
1E00
1E00
1E00
1E00
1E00
1E00
0000
0000
0000
0000
0000
0000
0000
0000
0000
0000
ENDCHAR

STARTCHAR s
ENCODING 115
SWIDTH 361 0
DWIDTH 14 0
BBX 14 40 0 -10
BITMAP
0000
0000
0000
0000
0000
0000
0000
0000
0000
0000
0000
0000
0FD8
3FF8
3FF8
7FF8
7838
7838
7800
7F00
3FE0
1FF0
03F8
0078
6078
6078
7FF8
7FF8
7FF0
6FE0
0000
0000
0000
0000
0000
0000
0000
0000
0000
0000
ENDCHAR

STARTCHAR t
ENCODING 116
SWIDTH 361 0
DWIDTH 14 0
BBX 14 40 0 -10
BITMAP
0000
0000
0000
0000
0000
0000
1E00
1E00
1E00
1E00
1E00
1E00
7FF8
7FF8
7FF8
7FF8
1E00
1E00
1E00
1E00
1E00
1E00
1E00
1E00
1E38
1E38
1FF8
0FF0
0FF0
03C0
0000
0000
0000
0000
0000
0000
0000
0000
0000
0000
ENDCHAR

STARTCHAR u
ENCODING 117
SWIDTH 361 0
DWIDTH 14 0
BBX 14 40 0 -10
BITMAP
0000
0000
0000
0000
0000
0000
0000
0000
0000
0000
0000
0000
7878
7878
7878
7878
7878
7878
7878
7878
7878
7878
7878
7878
7878
78F8
7FF8
7FF8
3F78
1E78
0000
0000
0000
0000
0000
0000
0000
0000
0000
0000
ENDCHAR

STARTCHAR v
ENCODING 118
SWIDTH 361 0
DWIDTH 14 0
BBX 14 40 0 -10
BITMAP
0000
0000
0000
0000
0000
0000
0000
0000
0000
0000
0000
0000
7878
7878
7878
7878
3870
3870
3CF0
3CF0
1CE0
1CE0
1CE0
1CE0
0FC0
0FC0
0FC0
0FC0
0780
0780
0000
0000
0000
0000
0000
0000
0000
0000
0000
0000
ENDCHAR

STARTCHAR w
ENCODING 119
SWIDTH 361 0
DWIDTH 14 0
BBX 14 40 0 -10
BITMAP
0000
0000
0000
0000
0000
0000
0000
0000
0000
0000
0000
0000
F03C
F03C
F03C
F03C
F03C
F33C
F33C
F33C
F33C
F7BC
77B8
7CF8
7CF8
7CF8
3CF0
3870
3870
3870
0000
0000
0000
0000
0000
0000
0000
0000
0000
0000
ENDCHAR

STARTCHAR x
ENCODING 120
SWIDTH 361 0
DWIDTH 14 0
BBX 14 40 0 -10
BITMAP
0000
0000
0000
0000
0000
0000
0000
0000
0000
0000
0000
0000
7878
7878
7CF8
3CF0
1CE0
1FE0
0FC0
0FC0
0780
0780
0FC0
0FC0
1FE0
1CE0
3CF0
7CF8
7878
7878
0000
0000
0000
0000
0000
0000
0000
0000
0000
0000
ENDCHAR

STARTCHAR y
ENCODING 121
SWIDTH 361 0
DWIDTH 14 0
BBX 14 40 0 -10
BITMAP
0000
0000
0000
0000
0000
0000
0000
0000
0000
0000
0000
0000
7878
7878
7878
7878
3870
3870
3CF0
3CF0
1CE0
1CE0
1CE0
1CE0
1CE0
0FC0
0FC0
0FC0
0F80
0780
0780
0700
0700
0700
7FE0
7FE0
7FE0
7FE0
0000
0000
ENDCHAR

STARTCHAR z
ENCODING 122
SWIDTH 361 0
DWIDTH 14 0
BBX 14 40 0 -10
BITMAP
0000
0000
0000
0000
0000
0000
0000
0000
0000
0000
0000
0000
7FF0
7FF0
7FF0
7FF0
01E0
01E0
03C0
07C0
0780
0F00
0F00
1E00
3E00
3C00
3FF0
7FF0
7FF0
7FF0
0000
0000
0000
0000
0000
0000
0000
0000
0000
0000
ENDCHAR

STARTCHAR braceleft
ENCODING 123
SWIDTH 361 0
DWIDTH 14 0
BBX 14 40 0 -10
BITMAP
0000
0000
03C0
07C0
0FC0
0FC0
0E00
0E00
0E00
0E00
0E00
0E00
0E00
0E00
0E00
1E00
1E00
3C00
3C00
1E00
1E00
0E00
0E00
0E00
0E00
0E00
0E00
0E00
0E00
0E00
0FC0
0FC0
07C0
03C0
0000
0000
0000
0000
0000
0000
ENDCHAR

STARTCHAR bar
ENCODING 124
SWIDTH 361 0
DWIDTH 14 0
BBX 14 40 0 -10
BITMAP
0000
0000
0780
0780
0780
0780
0780
0780
0780
0780
0780
0780
0780
0780
0780
0780
0780
0780
0780
0780
0780
0780
0780
0780
0780
0780
0780
0780
0780
0780
0780
0780
0780
0000
0000
0000
0000
0000
0000
0000
ENDCHAR

STARTCHAR braceright
ENCODING 125
SWIDTH 361 0
DWIDTH 14 0
BBX 14 40 0 -10
BITMAP
0000
0000
3C00
3E00
3F00
3F00
0700
0700
0700
0700
0700
0700
0700
0700
0700
0780
0780
03E0
03E0
0780
0780
0700
0700
0700
0700
0700
0700
0700
0700
0700
3F00
3F00
3E00
3C00
0000
0000
0000
0000
0000
0000
ENDCHAR

STARTCHAR asciitilde
ENCODING 126
SWIDTH 361 0
DWIDTH 14 0
BBX 14 40 0 -10
BITMAP
0000
0000
1C18
3E18
7FF8
7FF8
61F0
60E0
0000
0000
0000
0000
0000
0000
0000
0000
0000
0000
0000
0000
0000
0000
0000
0000
0000
0000
0000
0000
0000
0000
0000
0000
0000
0000
0000
0000
0000
0000
0000
0000
ENDCHAR

STARTCHAR space
ENCODING 160
SWIDTH 361 0
DWIDTH 14 0
BBX 14 40 0 -10
BITMAP
0000
0000
0000
0000
0000
0000
0000
0000
0000
0000
0000
0000
0000
0000
0000
0000
0000
0000
0000
0000
0000
0000
0000
0000
0000
0000
0000
0000
0000
0000
0000
0000
0000
0000
0000
0000
0000
0000
0000
0000
ENDCHAR

STARTCHAR Aogonek
ENCODING 161
SWIDTH 361 0
DWIDTH 14 0
BBX 14 40 0 -10
BITMAP
0000
0000
0000
0000
0000
0000
0000
0000
0780
0FC0
0FC0
1FE0
1FE0
3CF0
3CF0
7878
7878
7878
7878
7878
7FF8
7FF8
7FF8
7FF8
7878
7878
7878
7878
7878
7878
00E0
01C0
01D8
01F8
00F0
0000
0000
0000
0000
0000
ENDCHAR

STARTCHAR afii240
ENCODING 162
SWIDTH 368 0
DWIDTH 14 0
BBX 14 40 0 -10
BITMAP
0000
0000
0000
0000
0000
0000
0000
0000
0000
0000
0000
0000
781C
783C
7878
78F0
79E0
7BC0
7F80
7F00
7F80
7FC0
7BE0
79E0
78F0
78F0
7878
7878
783C
783C
0000
0000
0000
0000
0000
0000
0000
0000
0000
0000
ENDCHAR

STARTCHAR Rcommaaccent
ENCODING 163
SWIDTH 368 0
DWIDTH 14 0
BBX 14 40 0 -10
BITMAP
0000
0000
0000
0000
0000
0000
0000
0000
7FC0
7FF0
7FF0
7FF8
7878
7878
7878
7878
7878
7878
7FF0
7FF0
7FC0
7FC0
79E0
79E0
78E0
78F0
78F0
7878
7878
7838
0380
07C0
07C0
03C0
01C0
0380
0700
0000
0000
0000
ENDCHAR

STARTCHAR currency
ENCODING 164
SWIDTH 361 0
DWIDTH 14 0
BBX 14 40 0 -10
BITMAP
0000
0000
0000
0000
0000
0000
0000
0000
0000
0000
0000
7038
7878
7FF8
3FF0
1FE0
3FF0
3870
7878
7878
7878
7878
3870
3FF0
1FE0
3FF0
7FF8
7878
7038
0000
0000
0000
0000
0000
0000
0000
0000
0000
0000
0000
ENDCHAR

STARTCHAR Itilde
ENCODING 165
SWIDTH 361 0
DWIDTH 14 0
BBX 14 40 0 -10
BITMAP
0000
0000
0E30
1FF0
3FE0
31C0
0000
0000
7FF8
7FF8
7FF8
7FF8
0780
0780
0780
0780
0780
0780
0780
0780
0780
0780
0780
0780
0780
0780
7FF8
7FF8
7FF8
7FF8
0000
0000
0000
0000
0000
0000
0000
0000
0000
0000
ENDCHAR

STARTCHAR Lcommaaccent
ENCODING 166
SWIDTH 361 0
DWIDTH 14 0
BBX 14 40 0 -10
BITMAP
0000
0000
0000
0000
0000
0000
0000
0000
7F80
7F80
7F80
7F80
1E00
1E00
1E00
1E00
1E00
1E00
1E00
1E00
1E00
1E00
1E18
1E18
1E18
1E18
7FF8
7FF8
7FF8
7FF8
0380
07C0
07C0
03C0
01C0
0380
0700
0000
0000
0000
ENDCHAR

STARTCHAR section
ENCODING 167
SWIDTH 361 0
DWIDTH 14 0
BBX 14 40 0 -10
BITMAP
0000
0000
0000
0000
0000
0000
0000
0000
03F8
0FF8
0FF8
1FF8
1E18
1E18
1E00
1F00
1F80
3FC0
7BE0
79F0
78F0
7878
7C78
3E78
1F78
0FF8
07F0
03F0
61E0
61E0
7FE0
7FE0
7FC0
7F80
0000
0000
0000
0000
0000
0000
ENDCHAR

STARTCHAR hungarumlaut
ENCODING 168
SWIDTH 361 0
DWIDTH 14 0
BBX 14 40 0 -10
BITMAP
0000
0000
0618
0F3C
1F7C
3EF8
79E0
E380
0000
0000
0000
0000
0000
0000
0000
0000
0000
0000
0000
0000
0000
0000
0000
0000
0000
0000
0000
0000
0000
0000
0000
0000
0000
0000
0000
0000
0000
0000
0000
0000
ENDCHAR

STARTCHAR Scaron
ENCODING 169
SWIDTH 361 0
DWIDTH 14 0
BBX 14 40 0 -10
BITMAP
0000
3870
3CF0
1FE0
0FC0
0780
0000
0000
0FB8
3FF8
3FF8
7FF8
7838
7838
7800
7800
7800
7E00
3FC0
3FF0
0FF0
00F8
0078
0078
7078
7078
7FF8
7FF0
7FF0
67C0
0000
0000
0000
0000
0000
0000
0000
0000
0000
0000
ENDCHAR

STARTCHAR Emacron
ENCODING 170
SWIDTH 361 0
DWIDTH 14 0
BBX 14 40 0 -10
BITMAP
0000
0000
3FE0
3FE0
3FE0
3FE0
0000
0000
7FF8
7FF8
7FF8
7FF8
7800
7800
7800
7800
7FE0
7FE0
7FE0
7FE0
7800
7800
7800
7800
7800
7800
7FF8
7FF8
7FF8
7FF8
0000
0000
0000
0000
0000
0000
0000
0000
0000
0000
ENDCHAR

STARTCHAR Gcommaaccent
ENCODING 171
SWIDTH 361 0
DWIDTH 14 0
BBX 14 40 0 -10
BITMAP
0000
0000
0000
0000
0000
0000
0000
0000
0738
1FB8
1FF8
3FF8
3C78
7838
7838
7838
7800
7800
79F8
79F8
79F8
79F8
7878
7878
7878
3C78
3FF8
1FF0
1FF0
07C0
0380
07C0
07C0
03C0
01C0
0380
0700
0000
0000
0000
ENDCHAR

STARTCHAR afii237
ENCODING 172
SWIDTH 361 0
DWIDTH 14 0
BBX 14 40 0 -10
BITMAP
0000
0000
0000
0000
0000
0000
0000
0000
7FF8
7FF8
7FF8
7FF8
6798
6798
6798
6798
0780
0780
3FF0
3FF0
3FF0
0780
0780
0780
0780
0780
1FE0
1FE0
1FE0
1FE0
0000
0000
0000
0000
0000
0000
0000
0000
0000
0000
ENDCHAR

STARTCHAR hyphen
ENCODING 173
SWIDTH 361 0
DWIDTH 14 0
BBX 14 40 0 -10
BITMAP
0000
0000
0000
0000
0000
0000
0000
0000
0000
0000
0000
0000
0000
0000
0000
0000
0000
0000
0000
1FE0
1FE0
1FE0
1FE0
1FE0
0000
0000
0000
0000
0000
0000
0000
0000
0000
0000
0000
0000
0000
0000
0000
0000
ENDCHAR

STARTCHAR Zcaron
ENCODING 174
SWIDTH 361 0
DWIDTH 14 0
BBX 14 40 0 -10
BITMAP
0000
3870
3CF0
1FE0
0FC0
0780
0000
0000
7FF8
7FF8
7FF8
7FF8
60F0
60F0
01E0
01E0
03C0
03C0
0780
0780
0F00
0F00
1E18
1E18
3C18
3C18
7FF8
7FF8
7FF8
7FF8
0000
0000
0000
0000
0000
0000
0000
0000
0000
0000
ENDCHAR

STARTCHAR macron
ENCODING 175
SWIDTH 361 0
DWIDTH 14 0
BBX 14 40 0 -10
BITMAP
0000
0000
0000
0000
1FF0
1FF0
1FF0
1FF0
0000
0000
0000
0000
0000
0000
0000
0000
0000
0000
0000
0000
0000
0000
0000
0000
0000
0000
0000
0000
0000
0000
0000
0000
0000
0000
0000
0000
0000
0000
0000
0000
ENDCHAR

STARTCHAR degree
ENCODING 176
SWIDTH 361 0
DWIDTH 14 0
BBX 14 40 0 -10
BITMAP
0000
0000
0000
0000
0000
0000
0000
0000
0FC0
1FE0
3FF0
7FF8
7878
7878
7878
7878
7FF8
3FF0
1FE0
0FC0
0000
0000
0000
0000
0000
0000
0000
0000
0000
0000
0000
0000
0000
0000
0000
0000
0000
0000
0000
0000
ENDCHAR

STARTCHAR aogonek
ENCODING 177
SWIDTH 361 0
DWIDTH 14 0
BBX 14 40 0 -10
BITMAP
0000
0000
0000
0000
0000
0000
0000
0000
0000
0000
0000
0000
1FE0
3FF0
3FF8
3FF8
0078
0078
0FF8
3FF8
3FF8
7FF8
7878
7878
7878
7878
7FF8
3FF8
3F78
0E78
00E0
01C0
01D8
01F8
00F0
0000
0000
0000
0000
0000
ENDCHAR

STARTCHAR ogonek
ENCODING 178
SWIDTH 361 0
DWIDTH 14 0
BBX 14 40 0 -10
BITMAP
0000
0000
0000
0000
0000
0000
0000
0000
0000
0000
0000
0000
0000
0000
0000
0000
0000
0000
0000
0000
0000
0000
0000
0000
0000
0000
0000
0000
0000
01C0
0380
0700
0760
07E0
03C0
0000
0000
0000
0000
0000
ENDCHAR

STARTCHAR rcommaaccent
ENCODING 179
SWIDTH 360 0
DWIDTH 14 0
BBX 14 40 0 -10
BITMAP
0000
0000
0000
0000
0000
0000
0000
0000
0000
0000
0000
0000
7C70
7CF8
7FFC
7FFC
7F1C
1E00
1E00
1E00
1E00
1E00
1E00
1E00
1E00
1E00
1E00
1E00
1E00
1E00
0700
0F80
0F80
0780
0380
0700
0E00
0000
0000
0000
ENDCHAR

STARTCHAR acute
ENCODING 180
SWIDTH 361 0
DWIDTH 14 0
BBX 14 40 0 -10
BITMAP
0000
0000
00C0
01E0
03E0
07C0
0F00
1C00
0000
0000
0000
0000
0000
0000
0000
0000
0000
0000
0000
0000
0000
0000
0000
0000
0000
0000
0000
0000
0000
0000
0000
0000
0000
0000
0000
0000
0000
0000
0000
0000
ENDCHAR

STARTCHAR itilde
ENCODING 181
SWIDTH 361 0
DWIDTH 14 0
BBX 14 40 0 -10
BITMAP
0000
0000
0000
0000
0000
0000
0E30
1FF0
3FE0
31C0
0000
0000
3F80
3F80
3F80
3F80
0780
0780
0780
0780
0780
0780
0780
0780
0780
0780
7FF8
7FF8
7FF8
7FF8
0000
0000
0000
0000
0000
0000
0000
0000
0000
0000
ENDCHAR

STARTCHAR lcommaaccent
ENCODING 182
SWIDTH 363 0
DWIDTH 14 0
BBX 14 40 0 -10
BITMAP
0000
0000
0000
0000
0000
0000
1F80
1F80
1F80
1F80
0780
0780
0780
0780
0780
0780
0780
0780
0780
0780
0780
0780
0780
0780
0780
0780
7FF8
7FF8
7FF8
7FF8
0380
07C0
07C0
03C0
01C0
0380
0700
0000
0000
0000
ENDCHAR

STARTCHAR caron
ENCODING 183
SWIDTH 361 0
DWIDTH 14 0
BBX 14 40 0 -10
BITMAP
0000
0000
0000
3870
3CF0
1FE0
0FC0
0780
0000
0000
0000
0000
0000
0000
0000
0000
0000
0000
0000
0000
0000
0000
0000
0000
0000
0000
0000
0000
0000
0000
0000
0000
0000
0000
0000
0000
0000
0000
0000
0000
ENDCHAR

STARTCHAR commaaccent
ENCODING 184
SWIDTH 363 0
DWIDTH 14 0
BBX 14 40 0 -10
BITMAP
0000
0000
0000
0000
0000
0000
0000
0000
0000
0000
0000
0000
0000
0000
0000
0000
0000
0000
0000
0000
0000
0000
0000
0000
0000
0000
0000
0000
0000
0000
0380
07C0
07C0
03C0
01C0
0380
0700
0000
0000
0000
ENDCHAR

STARTCHAR scaron
ENCODING 185
SWIDTH 361 0
DWIDTH 14 0
BBX 14 40 0 -10
BITMAP
0000
0000
0000
0000
0000
3870
3CF0
1FE0
0FC0
0780
0000
0000
0FD8
3FF8
3FF8
7FF8
7838
7838
7800
7F00
3FE0
1FF0
03F8
0078
6078
6078
7FF8
7FF8
7FF0
6FE0
0000
0000
0000
0000
0000
0000
0000
0000
0000
0000
ENDCHAR

STARTCHAR emacron
ENCODING 186
SWIDTH 361 0
DWIDTH 14 0
BBX 14 40 0 -10
BITMAP
0000
0000
0000
0000
0000
0000
1FF0
1FF0
1FF0
1FF0
0000
0000
0FC0
3FF0
3FF0
7FF8
7878
7878
7FF8
7FF8
7FF8
7FF8
7800
7800
7838
7838
7FF8
3FF0
3FF0
0FC0
0000
0000
0000
0000
0000
0000
0000
0000
0000
0000
ENDCHAR

STARTCHAR gcommaaccent
ENCODING 187
SWIDTH 361 0
DWIDTH 14 0
BBX 14 40 0 -10
BITMAP
0000
0000
0000
0000
0380
0700
0E00
0F00
0F80
0F80
0700
0000
0E78
3F78
3FF8
7FF8
7CF8
7878
7878
7878
7878
7878
7878
7878
7878
7CF8
7FF8
3FF8
3F78
0E78
0078
0078
0078
0078
1FF8
1FF0
1FF0
1FC0
0000
0000
ENDCHAR

STARTCHAR afii253
ENCODING 188
SWIDTH 361 0
DWIDTH 14 0
BBX 14 40 0 -10
BITMAP
0000
0000
0000
0000
0000
0000
1E00
1E00
1E00
1E00
1E00
1E00
7FF8
7FF8
7FF8
7FF8
1E00
1E00
7FE0
7FE0
7FE0
7FE0
1E00
1E00
1E38
1E38
1FF8
0FF0
0FF0
03C0
0000
0000
0000
0000
0000
0000
0000
0000
0000
0000
ENDCHAR

STARTCHAR afii238
ENCODING 189
SWIDTH 361 0
DWIDTH 14 0
BBX 14 40 0 -10
BITMAP
0000
0000
0000
0000
0000
0000
0000
0000
79F0
7BF8
7FF8
7FFC
7E3C
7C3C
783C
783C
783C
783C
783C
783C
783C
783C
783C
783C
783C
7B3C
7BFC
7BF8
7BF8
79F0
0000
0000
0000
0000
0000
0000
0000
0000
0000
0000
ENDCHAR

STARTCHAR zcaron
ENCODING 190
SWIDTH 361 0
DWIDTH 14 0
BBX 14 40 0 -10
BITMAP
0000
0000
0000
0000
0000
3870
3CF0
1FE0
0FC0
0780
0000
0000
7FF0
7FF0
7FF0
7FF0
01E0
01E0
03C0
07C0
0780
0F00
0F00
1E00
3E00
3C00
3FF0
7FF0
7FF0
7FF0
0000
0000
0000
0000
0000
0000
0000
0000
0000
0000
ENDCHAR

STARTCHAR afii254
ENCODING 191
SWIDTH 361 0
DWIDTH 14 0
BBX 14 40 0 -10
BITMAP
0000
0000
0000
0000
0000
0000
0000
0000
0000
0000
0000
0000
7BE0
7FF0
7FF0
7FF8
7C78
7878
7878
7878
7878
7878
7878
7878
7878
7878
7878
7878
7878
7878
0078
00F8
0FF8
1FF0
1FE0
0F80
0000
0000
0000
0000
ENDCHAR

STARTCHAR Amacron
ENCODING 192
SWIDTH 361 0
DWIDTH 14 0
BBX 14 40 0 -10
BITMAP
0000
0000
1FF0
1FF0
1FF0
1FF0
0000
0000
0780
0FC0
0FC0
1FE0
1FE0
3CF0
3CF0
7878
7878
7878
7878
7878
7FF8
7FF8
7FF8
7FF8
7878
7878
7878
7878
7878
7878
0000
0000
0000
0000
0000
0000
0000
0000
0000
0000
ENDCHAR

STARTCHAR Aacute
ENCODING 193
SWIDTH 361 0
DWIDTH 14 0
BBX 14 40 0 -10
BITMAP
0060
00F0
01F0
03E0
0780
0E00
0000
0000
0780
0FC0
0FC0
1FE0
1FE0
3CF0
3CF0
7878
7878
7878
7878
7878
7FF8
7FF8
7FF8
7FF8
7878
7878
7878
7878
7878
7878
0000
0000
0000
0000
0000
0000
0000
0000
0000
0000
ENDCHAR

STARTCHAR Acircumflex
ENCODING 194
SWIDTH 361 0
DWIDTH 14 0
BBX 14 40 0 -10
BITMAP
0000
0780
0FC0
1FE0
3CF0
3870
0000
0000
0780
0FC0
0FC0
1FE0
1FE0
3CF0
3CF0
7878
7878
7878
7878
7878
7FF8
7FF8
7FF8
7FF8
7878
7878
7878
7878
7878
7878
0000
0000
0000
0000
0000
0000
0000
0000
0000
0000
ENDCHAR

STARTCHAR Atilde
ENCODING 195
SWIDTH 361 0
DWIDTH 14 0
BBX 14 40 0 -10
BITMAP
0000
0000
0E30
1FF0
3FE0
31C0
0000
0000
0780
0FC0
0FC0
1FE0
1FE0
3CF0
3CF0
7878
7878
7878
7878
7878
7FF8
7FF8
7FF8
7FF8
7878
7878
7878
7878
7878
7878
0000
0000
0000
0000
0000
0000
0000
0000
0000
0000
ENDCHAR

STARTCHAR Adieresis
ENCODING 196
SWIDTH 361 0
DWIDTH 14 0
BBX 14 40 0 -10
BITMAP
0000
1830
3C78
3C78
3C78
1830
0000
0000
0780
0FC0
0FC0
1FE0
1FE0
3CF0
3CF0
7878
7878
7878
7878
7878
7FF8
7FF8
7FF8
7FF8
7878
7878
7878
7878
7878
7878
0000
0000
0000
0000
0000
0000
0000
0000
0000
0000
ENDCHAR

STARTCHAR Aring
ENCODING 197
SWIDTH 361 0
DWIDTH 14 0
BBX 14 40 0 -10
BITMAP
0780
0FC0
1FE0
1CE0
1CE0
1CE0
1FE0
0FC0
0780
0FC0
0FC0
1FE0
1FE0
3CF0
3CF0
7878
7878
7878
7878
7878
7FF8
7FF8
7FF8
7FF8
7878
7878
7878
7878
7878
7878
0000
0000
0000
0000
0000
0000
0000
0000
0000
0000
ENDCHAR

STARTCHAR AE
ENCODING 198
SWIDTH 361 0
DWIDTH 14 0
BBX 14 40 0 -10
BITMAP
0000
0000
0000
0000
0000
0000
0000
0000
1FFC
1FFC
3FFC
3FFC
7FC0
7BC0
7BC0
F3C0
F3F8
F3F8
F3F8
F3F8
FFC0
FFC0
FFC0
FFC0
F3C0
F3C0
F3FC
F3FC
F3FC
F3FC
0000
0000
0000
0000
0000
0000
0000
0000
0000
0000
ENDCHAR

STARTCHAR Iogonek
ENCODING 199
SWIDTH 361 0
DWIDTH 14 0
BBX 14 40 0 -10
BITMAP
0000
0000
0000
0000
0000
0000
0000
0000
7FF8
7FF8
7FF8
7FF8
0780
0780
0780
0780
0780
0780
0780
0780
0780
0780
0780
0780
0780
0780
7FF8
7FF8
7FF8
7FF8
0380
0700
0760
07E0
03C0
0000
0000
0000
0000
0000
ENDCHAR

STARTCHAR Ccaron
ENCODING 200
SWIDTH 361 0
DWIDTH 14 0
BBX 14 40 0 -10
BITMAP
0000
3870
3CF0
1FE0
0FC0
0780
0000
0000
0738
1FB8
1FF8
3FF8
3C78
7838
7838
7838
7800
7800
7800
7800
7800
7800
7800
7800
7838
3C78
3FF8
1FF0
1FE0
07C0
0000
0000
0000
0000
0000
0000
0000
0000
0000
0000
ENDCHAR

STARTCHAR Eacute
ENCODING 201
SWIDTH 361 0
DWIDTH 14 0
BBX 14 40 0 -10
BITMAP
0060
00F0
01F0
03E0
0780
0E00
0000
0000
7FF8
7FF8
7FF8
7FF8
7800
7800
7800
7800
7FE0
7FE0
7FE0
7FE0
7800
7800
7800
7800
7800
7800
7FF8
7FF8
7FF8
7FF8
0000
0000
0000
0000
0000
0000
0000
0000
0000
0000
ENDCHAR

STARTCHAR Eogonek
ENCODING 202
SWIDTH 361 0
DWIDTH 14 0
BBX 14 40 0 -10
BITMAP
0000
0000
0000
0000
0000
0000
0000
0000
7FF8
7FF8
7FF8
7FF8
7800
7800
7800
7800
7FE0
7FE0
7FE0
7FE0
7800
7800
7800
7800
7800
7800
7FF8
7FF8
7FF8
7FF8
01C0
0380
03B0
03F0
01E0
0000
0000
0000
0000
0000
ENDCHAR

STARTCHAR Edieresis
ENCODING 203
SWIDTH 361 0
DWIDTH 14 0
BBX 14 40 0 -10
BITMAP
0000
3030
7878
7878
7878
3030
0000
0000
7FF8
7FF8
7FF8
7FF8
7800
7800
7800
7800
7FE0
7FE0
7FE0
7FE0
7800
7800
7800
7800
7800
7800
7FF8
7FF8
7FF8
7FF8
0000
0000
0000
0000
0000
0000
0000
0000
0000
0000
ENDCHAR

STARTCHAR Edotaccent
ENCODING 204
SWIDTH 361 0
DWIDTH 14 0
BBX 14 40 0 -10
BITMAP
0000
0300
0780
0780
0780
0300
0000
0000
7FF8
7FF8
7FF8
7FF8
7800
7800
7800
7800
7FE0
7FE0
7FE0
7FE0
7800
7800
7800
7800
7800
7800
7FF8
7FF8
7FF8
7FF8
0000
0000
0000
0000
0000
0000
0000
0000
0000
0000
ENDCHAR

STARTCHAR Iacute
ENCODING 205
SWIDTH 361 0
DWIDTH 14 0
BBX 14 40 0 -10
BITMAP
0060
00F0
01F0
03E0
0780
0E00
0000
0000
7FF8
7FF8
7FF8
7FF8
0780
0780
0780
0780
0780
0780
0780
0780
0780
0780
0780
0780
0780
0780
7FF8
7FF8
7FF8
7FF8
0000
0000
0000
0000
0000
0000
0000
0000
0000
0000
ENDCHAR

STARTCHAR Icircumflex
ENCODING 206
SWIDTH 361 0
DWIDTH 14 0
BBX 14 40 0 -10
BITMAP
0000
0780
0FC0
1FE0
3CF0
3870
0000
0000
7FF8
7FF8
7FF8
7FF8
0780
0780
0780
0780
0780
0780
0780
0780
0780
0780
0780
0780
0780
0780
7FF8
7FF8
7FF8
7FF8
0000
0000
0000
0000
0000
0000
0000
0000
0000
0000
ENDCHAR

STARTCHAR Imacron
ENCODING 207
SWIDTH 361 0
DWIDTH 14 0
BBX 14 40 0 -10
BITMAP
0000
0000
3FE0
3FE0
3FE0
3FE0
0000
0000
7FF8
7FF8
7FF8
7FF8
0780
0780
0780
0780
0780
0780
0780
0780
0780
0780
0780
0780
0780
0780
7FF8
7FF8
7FF8
7FF8
0000
0000
0000
0000
0000
0000
0000
0000
0000
0000
ENDCHAR

STARTCHAR Eth
ENCODING 208
SWIDTH 361 0
DWIDTH 14 0
BBX 14 40 0 -10
BITMAP
0000
0000
0000
0000
0000
0000
0000
0000
7F80
7FE0
7FF0
7FF0
78F8
7878
7878
7878
FF78
FF78
FF78
FF78
7878
7878
7878
7878
7878
78F8
7FF0
7FF0
7FE0
7F80
0000
0000
0000
0000
0000
0000
0000
0000
0000
0000
ENDCHAR

STARTCHAR Ncommaaccent
ENCODING 209
SWIDTH 361 0
DWIDTH 14 0
BBX 14 40 0 -10
BITMAP
0000
0000
0000
0000
0000
0000
0000
0000
7878
7878
7C78
7C78
7C78
7C78
7C78
7E78
7E78
7E78
7B78
7B78
7B78
7BF8
79F8
79F8
79F8
78F8
78F8
78F8
7878
7878
0380
07C0
07C0
03C0
01C0
0380
0700
0000
0000
0000
ENDCHAR

STARTCHAR Omacron
ENCODING 210
SWIDTH 361 0
DWIDTH 14 0
BBX 14 40 0 -10
BITMAP
0000
0000
1FF0
1FF0
1FF0
1FF0
0000
0000
0780
1FE0
1FE0
3FF0
3CF0
7878
7878
7878
7878
7878
7878
7878
7878
7878
7878
7878
7878
3CF0
3FF0
1FE0
1FE0
0780
0000
0000
0000
0000
0000
0000
0000
0000
0000
0000
ENDCHAR

STARTCHAR Kcommaaccent
ENCODING 211
SWIDTH 368 0
DWIDTH 14 0
BBX 14 40 0 -10
BITMAP
0000
0000
0000
0000
0000
0000
0000
0000
7878
7878
78F8
78F8
79E0
79E0
7BC0
7BC0
7F80
7F80
7F80
7FC0
7BC0
79E0
79E0
78F0
78F0
78F0
7878
7878
7878
7878
0380
07C0
07C0
03C0
01C0
0380
0700
0000
0000
0000
ENDCHAR

STARTCHAR Ocircumflex
ENCODING 212
SWIDTH 361 0
DWIDTH 14 0
BBX 14 40 0 -10
BITMAP
0000
0780
0FC0
1FE0
3CF0
3870
0000
0000
0780
1FE0
1FE0
3FF0
3CF0
7878
7878
7878
7878
7878
7878
7878
7878
7878
7878
7878
7878
3CF0
3FF0
1FE0
1FE0
0780
0000
0000
0000
0000
0000
0000
0000
0000
0000
0000
ENDCHAR

STARTCHAR Otilde
ENCODING 213
SWIDTH 361 0
DWIDTH 14 0
BBX 14 40 0 -10
BITMAP
0000
0000
0E30
1FF0
3FE0
31C0
0000
0000
0780
1FE0
1FE0
3FF0
3CF0
7878
7878
7878
7878
7878
7878
7878
7878
7878
7878
7878
7878
3CF0
3FF0
1FE0
1FE0
0780
0000
0000
0000
0000
0000
0000
0000
0000
0000
0000
ENDCHAR

STARTCHAR Odieresis
ENCODING 214
SWIDTH 361 0
DWIDTH 14 0
BBX 14 40 0 -10
BITMAP
0000
1830
3C78
3C78
3C78
1830
0000
0000
0780
1FE0
1FE0
3FF0
3CF0
7878
7878
7878
7878
7878
7878
7878
7878
7878
7878
7878
7878
3CF0
3FF0
1FE0
1FE0
0780
0000
0000
0000
0000
0000
0000
0000
0000
0000
0000
ENDCHAR

STARTCHAR multiply
ENCODING 215
SWIDTH 361 0
DWIDTH 14 0
BBX 14 40 0 -10
BITMAP
0000
0000
0000
0000
0000
0000
0000
0000
0000
0000
0000
0000
0000
2010
7038
7878
3CF0
1FE0
0FC0
0780
0780
0FC0
1FE0
3CF0
7878
7038
2010
0000
0000
0000
0000
0000
0000
0000
0000
0000
0000
0000
0000
0000
ENDCHAR

STARTCHAR Oslash
ENCODING 216
SWIDTH 361 0
DWIDTH 14 0
BBX 14 40 0 -10
BITMAP
0000
0000
0000
0000
0000
0000
0018
0018
07F8
1FF0
1FF0
3FF0
3CF0
78F8
78F8
79F8
79F8
79F8
7B78
7B78
7B78
7E78
7E78
7E78
7C78
3CF0
3FF0
3FE0
3FE0
7F80
6000
6000
0000
0000
0000
0000
0000
0000
0000
0000
ENDCHAR

STARTCHAR Uogonek
ENCODING 217
SWIDTH 361 0
DWIDTH 14 0
BBX 14 40 0 -10
BITMAP
0000
0000
0000
0000
0000
0000
0000
0000
7878
7878
7878
7878
7878
7878
7878
7878
7878
7878
7878
7878
7878
7878
7878
7878
7878
7878
7FF8
3FF0
3FF0
0FC0
0700
0E00
0EC0
0FC0
0780
0000
0000
0000
0000
0000
ENDCHAR

STARTCHAR Uacute
ENCODING 218
SWIDTH 361 0
DWIDTH 14 0
BBX 14 40 0 -10
BITMAP
00C0
01E0
03E0
07C0
0F00
1C00
0000
0000
7878
7878
7878
7878
7878
7878
7878
7878
7878
7878
7878
7878
7878
7878
7878
7878
7878
7878
7FF8
3FF0
3FF0
0FC0
0000
0000
0000
0000
0000
0000
0000
0000
0000
0000
ENDCHAR

STARTCHAR Ucircumflex
ENCODING 219
SWIDTH 361 0
DWIDTH 14 0
BBX 14 40 0 -10
BITMAP
0000
0780
0FC0
1FE0
3CF0
3870
0000
0000
7878
7878
7878
7878
7878
7878
7878
7878
7878
7878
7878
7878
7878
7878
7878
7878
7878
7878
7FF8
3FF0
3FF0
0FC0
0000
0000
0000
0000
0000
0000
0000
0000
0000
0000
ENDCHAR

STARTCHAR Udieresis
ENCODING 220
SWIDTH 361 0
DWIDTH 14 0
BBX 14 40 0 -10
BITMAP
0000
3030
7878
7878
7878
3030
0000
0000
7878
7878
7878
7878
7878
7878
7878
7878
7878
7878
7878
7878
7878
7878
7878
7878
7878
7878
7FF8
3FF0
3FF0
0FC0
0000
0000
0000
0000
0000
0000
0000
0000
0000
0000
ENDCHAR

STARTCHAR Utilde
ENCODING 221
SWIDTH 361 0
DWIDTH 14 0
BBX 14 40 0 -10
BITMAP
0000
0000
0E30
1FF0
3FE0
31C0
0000
0000
7878
7878
7878
7878
7878
7878
7878
7878
7878
7878
7878
7878
7878
7878
7878
7878
7878
7878
7FF8
3FF0
3FF0
0FC0
0000
0000
0000
0000
0000
0000
0000
0000
0000
0000
ENDCHAR

STARTCHAR Umacron
ENCODING 222
SWIDTH 361 0
DWIDTH 14 0
BBX 14 40 0 -10
BITMAP
0000
0000
1FF0
1FF0
1FF0
1FF0
0000
0000
7878
7878
7878
7878
7878
7878
7878
7878
7878
7878
7878
7878
7878
7878
7878
7878
7878
7878
7FF8
3FF0
3FF0
0FC0
0000
0000
0000
0000
0000
0000
0000
0000
0000
0000
ENDCHAR

STARTCHAR germandbls
ENCODING 223
SWIDTH 361 0
DWIDTH 14 0
BBX 14 40 0 -10
BITMAP
0000
0000
0000
0000
0000
0000
0FC0
3FF0
3FF0
7FF8
7878
7878
7878
7870
79E0
79E0
79F0
79F0
7878
7878
7878
7878
7878
7878
7878
7878
7BF8
7BF0
7BF0
7BC0
0000
0000
0000
0000
0000
0000
0000
0000
0000
0000
ENDCHAR

STARTCHAR amacron
ENCODING 224
SWIDTH 361 0
DWIDTH 14 0
BBX 14 40 0 -10
BITMAP
0000
0000
0000
0000
0000
0000
1FF0
1FF0
1FF0
1FF0
0000
0000
1FE0
3FF0
3FF8
3FF8
0078
0078
0FF8
3FF8
3FF8
7FF8
7878
7878
7878
7878
7FF8
3FF8
3F78
0E78
0000
0000
0000
0000
0000
0000
0000
0000
0000
0000
ENDCHAR

STARTCHAR aacute
ENCODING 225
SWIDTH 361 0
DWIDTH 14 0
BBX 14 40 0 -10
BITMAP
0000
0000
0000
0000
00C0
01E0
03E0
07C0
0F00
1C00
0000
0000
1FE0
3FF0
3FF8
3FF8
0078
0078
0FF8
3FF8
3FF8
7FF8
7878
7878
7878
7878
7FF8
3FF8
3F78
0E78
0000
0000
0000
0000
0000
0000
0000
0000
0000
0000
ENDCHAR

STARTCHAR acircumflex
ENCODING 226
SWIDTH 361 0
DWIDTH 14 0
BBX 14 40 0 -10
BITMAP
0000
0000
0000
0000
0000
0780
0FC0
1FE0
3CF0
3870
0000
0000
1FE0
3FF0
3FF8
3FF8
0078
0078
0FF8
3FF8
3FF8
7FF8
7878
7878
7878
7878
7FF8
3FF8
3F78
0E78
0000
0000
0000
0000
0000
0000
0000
0000
0000
0000
ENDCHAR

STARTCHAR atilde
ENCODING 227
SWIDTH 361 0
DWIDTH 14 0
BBX 14 40 0 -10
BITMAP
0000
0000
0000
0000
0000
0000
0718
0FF8
1FF0
18E0
0000
0000
1FE0
3FF0
3FF8
3FF8
0078
0078
0FF8
3FF8
3FF8
7FF8
7878
7878
7878
7878
7FF8
3FF8
3F78
0E78
0000
0000
0000
0000
0000
0000
0000
0000
0000
0000
ENDCHAR

STARTCHAR adieresis
ENCODING 228
SWIDTH 361 0
DWIDTH 14 0
BBX 14 40 0 -10
BITMAP
0000
0000
0000
0000
0000
3030
7878
7878
7878
3030
0000
0000
1FE0
3FF0
3FF8
3FF8
0078
0078
0FF8
3FF8
3FF8
7FF8
7878
7878
7878
7878
7FF8
3FF8
3F78
0E78
0000
0000
0000
0000
0000
0000
0000
0000
0000
0000
ENDCHAR

STARTCHAR aring
ENCODING 229
SWIDTH 361 0
DWIDTH 14 0
BBX 14 40 0 -10
BITMAP
0000
0000
0780
0FC0
1FE0
1CE0
1CE0
1CE0
1FE0
0FC0
0780
0000
1FE0
3FF0
3FF8
3FF8
0078
0078
0FF8
3FF8
3FF8
7FF8
7878
7878
7878
7878
7FF8
3FF8
3F78
0E78
0000
0000
0000
0000
0000
0000
0000
0000
0000
0000
ENDCHAR

STARTCHAR ae
ENCODING 230
SWIDTH 361 0
DWIDTH 14 0
BBX 14 40 0 -10
BITMAP
0000
0000
0000
0000
0000
0000
0000
0000
0000
0000
0000
0000
3EE0
7FF8
7FF8
7FFC
079C
079C
1F9C
7FFC
7FFC
FFFC
E7FC
E780
E79C
E79C
FFFC
7FF8
7FF8
1CE0
0000
0000
0000
0000
0000
0000
0000
0000
0000
0000
ENDCHAR

STARTCHAR iogonek
ENCODING 231
SWIDTH 350 0
DWIDTH 14 0
BBX 14 40 0 -10
BITMAP
0000
0000
0000
0000
0780
0780
0780
0780
0780
0780
0000
0000
3F80
3F80
3F80
3F80
0780
0780
0780
0780
0780
0780
0780
0780
0780
0780
7FF8
7FF8
7FF8
7FF8
0700
0E00
0EC0
0FC0
0780
0000
0000
0000
0000
0000
ENDCHAR

STARTCHAR ccaron
ENCODING 232
SWIDTH 361 0
DWIDTH 14 0
BBX 14 40 0 -10
BITMAP
0000
0000
0000
0000
0000
3870
3CF0
1FE0
0FC0
0780
0000
0000
0F38
3FB8
3FF8
7FF8
7878
7838
7838
7800
7800
7800
7800
7800
7838
7838
7FF8
3FF0
3FF0
0FC0
0000
0000
0000
0000
0000
0000
0000
0000
0000
0000
ENDCHAR

STARTCHAR eacute
ENCODING 233
SWIDTH 361 0
DWIDTH 14 0
BBX 14 40 0 -10
BITMAP
0000
0000
0000
0000
00C0
01E0
03E0
07C0
0F00
1C00
0000
0000
0FC0
3FF0
3FF0
7FF8
7878
7878
7FF8
7FF8
7FF8
7FF8
7800
7800
7838
7838
7FF8
3FF0
3FF0
0FC0
0000
0000
0000
0000
0000
0000
0000
0000
0000
0000
ENDCHAR

STARTCHAR eogonek
ENCODING 234
SWIDTH 361 0
DWIDTH 14 0
BBX 14 40 0 -10
BITMAP
0000
0000
0000
0000
0000
0000
0000
0000
0000
0000
0000
0000
0FC0
3FF0
3FF0
7FF8
7878
7878
7FF8
7FF8
7FF8
7FF8
7800
7800
7838
7838
7FF8
3FF0
3FF0
0FC0
0380
0700
0760
07E0
03C0
0000
0000
0000
0000
0000
ENDCHAR

STARTCHAR edieresis
ENCODING 235
SWIDTH 361 0
DWIDTH 14 0
BBX 14 40 0 -10
BITMAP
0000
0000
0000
0000
0000
3030
7878
7878
7878
3030
0000
0000
0FC0
3FF0
3FF0
7FF8
7878
7878
7FF8
7FF8
7FF8
7FF8
7800
7800
7838
7838
7FF8
3FF0
3FF0
0FC0
0000
0000
0000
0000
0000
0000
0000
0000
0000
0000
ENDCHAR

STARTCHAR edotaccent
ENCODING 236
SWIDTH 361 0
DWIDTH 14 0
BBX 14 40 0 -10
BITMAP
0000
0000
0000
0000
0000
0300
0780
0780
0780
0300
0000
0000
0FC0
3FF0
3FF0
7FF8
7878
7878
7FF8
7FF8
7FF8
7FF8
7800
7800
7838
7838
7FF8
3FF0
3FF0
0FC0
0000
0000
0000
0000
0000
0000
0000
0000
0000
0000
ENDCHAR

STARTCHAR iacute
ENCODING 237
SWIDTH 361 0
DWIDTH 14 0
BBX 14 40 0 -10
BITMAP
0000
0000
0000
0000
00C0
01E0
03E0
07C0
0F00
1C00
0000
0000
3F80
3F80
3F80
3F80
0780
0780
0780
0780
0780
0780
0780
0780
0780
0780
7FF8
7FF8
7FF8
7FF8
0000
0000
0000
0000
0000
0000
0000
0000
0000
0000
ENDCHAR

STARTCHAR icircumflex
ENCODING 238
SWIDTH 361 0
DWIDTH 14 0
BBX 14 40 0 -10
BITMAP
0000
0000
0000
0000
0000
0780
0FC0
1FE0
3CF0
3870
0000
0000
3F80
3F80
3F80
3F80
0780
0780
0780
0780
0780
0780
0780
0780
0780
0780
7FF8
7FF8
7FF8
7FF8
0000
0000
0000
0000
0000
0000
0000
0000
0000
0000
ENDCHAR

STARTCHAR imacron
ENCODING 239
SWIDTH 361 0
DWIDTH 14 0
BBX 14 40 0 -10
BITMAP
0000
0000
0000
0000
0000
0000
3FE0
3FE0
3FE0
3FE0
0000
0000
3F80
3F80
3F80
3F80
0780
0780
0780
0780
0780
0780
0780
0780
0780
0780
7FF8
7FF8
7FF8
7FF8
0000
0000
0000
0000
0000
0000
0000
0000
0000
0000
ENDCHAR

STARTCHAR dcroat
ENCODING 240
SWIDTH 361 0
DWIDTH 14 0
BBX 14 40 0 -10
BITMAP
0000
0000
0000
0000
0000
0000
1C18
1F38
07E0
03C0
0FC0
3CE0
30E0
0070
0F70
3FF8
3FF8
7FF8
7878
7878
7878
7878
7878
7878
7878
7878
7FF8
3FF0
3FF0
0FC0
0000
0000
0000
0000
0000
0000
0000
0000
0000
0000
ENDCHAR

STARTCHAR ncommaaccent
ENCODING 241
SWIDTH 361 0
DWIDTH 14 0
BBX 14 40 0 -10
BITMAP
0000
0000
0000
0000
0000
0000
0000
0000
0000
0000
0000
0000
79E0
7BF0
7FF0
7FF8
7C78
7878
7878
7878
7878
7878
7878
7878
7878
7878
7878
7878
7878
7878
0380
07C0
07C0
03C0
01C0
0380
0700
0000
0000
0000
ENDCHAR

STARTCHAR omacron
ENCODING 242
SWIDTH 361 0
DWIDTH 14 0
BBX 14 40 0 -10
BITMAP
0000
0000
0000
0000
0000
0000
1FF0
1FF0
1FF0
1FF0
0000
0000
0FC0
3FF0
3FF0
7FF8
7878
7878
7878
7878
7878
7878
7878
7878
7878
7878
7FF8
3FF0
3FF0
0FC0
0000
0000
0000
0000
0000
0000
0000
0000
0000
0000
ENDCHAR

STARTCHAR kcommaaccent
ENCODING 243
SWIDTH 368 0
DWIDTH 14 0
BBX 14 40 0 -10
BITMAP
0000
0000
0000
0000
0000
0000
7800
7800
7800
7800
7800
7800
7878
7878
78F8
78F8
79E0
79E0
7BC0
7BC0
7F80
7F80
7FC0
7FC0
79E0
79E0
78F8
78F8
7878
7878
0380
07C0
07C0
03C0
01C0
0380
0700
0000
0000
0000
ENDCHAR

STARTCHAR ocircumflex
ENCODING 244
SWIDTH 361 0
DWIDTH 14 0
BBX 14 40 0 -10
BITMAP
0000
0000
0000
0000
0000
0780
0FC0
1FE0
3CF0
3870
0000
0000
0FC0
3FF0
3FF0
7FF8
7878
7878
7878
7878
7878
7878
7878
7878
7878
7878
7FF8
3FF0
3FF0
0FC0
0000
0000
0000
0000
0000
0000
0000
0000
0000
0000
ENDCHAR

STARTCHAR otilde
ENCODING 245
SWIDTH 361 0
DWIDTH 14 0
BBX 14 40 0 -10
BITMAP
0000
0000
0000
0000
0000
0000
0E30
1FF0
3FE0
31C0
0000
0000
0FC0
3FF0
3FF0
7FF8
7878
7878
7878
7878
7878
7878
7878
7878
7878
7878
7FF8
3FF0
3FF0
0FC0
0000
0000
0000
0000
0000
0000
0000
0000
0000
0000
ENDCHAR

STARTCHAR odieresis
ENCODING 246
SWIDTH 361 0
DWIDTH 14 0
BBX 14 40 0 -10
BITMAP
0000
0000
0000
0000
0000
3030
7878
7878
7878
3030
0000
0000
0FC0
3FF0
3FF0
7FF8
7878
7878
7878
7878
7878
7878
7878
7878
7878
7878
7FF8
3FF0
3FF0
0FC0
0000
0000
0000
0000
0000
0000
0000
0000
0000
0000
ENDCHAR

STARTCHAR divide
ENCODING 247
SWIDTH 361 0
DWIDTH 14 0
BBX 14 40 0 -10
BITMAP
0000
0000
0000
0000
0000
0000
0000
0000
0000
0000
0300
0780
0780
0780
0780
0300
0000
0000
7FF8
7FF8
7FF8
7FF8
0000
0000
0300
0780
0780
0780
0780
0300
0000
0000
0000
0000
0000
0000
0000
0000
0000
0000
ENDCHAR

STARTCHAR oslash
ENCODING 248
SWIDTH 361 0
DWIDTH 14 0
BBX 14 40 0 -10
BITMAP
0000
0000
0000
0000
0000
0000
0000
0000
0000
0000
0000
0000
0FD8
3FF8
3FF0
7FF8
78F8
78F8
79F8
79F8
7B78
7B78
7E78
7E78
7C78
7C78
7FF8
3FF0
7FF0
6FC0
0000
0000
0000
0000
0000
0000
0000
0000
0000
0000
ENDCHAR

STARTCHAR uogonek
ENCODING 249
SWIDTH 363 0
DWIDTH 14 0
BBX 14 40 0 -10
BITMAP
0000
0000
0000
0000
0000
0000
0000
0000
0000
0000
0000
0000
7878
7878
7878
7878
7878
7878
7878
7878
7878
7878
7878
7878
7878
78F8
7FF8
7FF8
3F78
1E78
00E0
01C0
01D8
01F8
00F0
0000
0000
0000
0000
0000
ENDCHAR

STARTCHAR uacute
ENCODING 250
SWIDTH 361 0
DWIDTH 14 0
BBX 14 40 0 -10
BITMAP
0000
0000
0000
0000
0060
00F0
01F0
03E0
0780
0E00
0000
0000
7878
7878
7878
7878
7878
7878
7878
7878
7878
7878
7878
7878
7878
78F8
7FF8
7FF8
3F78
1E78
0000
0000
0000
0000
0000
0000
0000
0000
0000
0000
ENDCHAR

STARTCHAR ucircumflex
ENCODING 251
SWIDTH 361 0
DWIDTH 14 0
BBX 14 40 0 -10
BITMAP
0000
0000
0000
0000
0000
0780
0FC0
1FE0
3CF0
3870
0000
0000
7878
7878
7878
7878
7878
7878
7878
7878
7878
7878
7878
7878
7878
78F8
7FF8
7FF8
3F78
1E78
0000
0000
0000
0000
0000
0000
0000
0000
0000
0000
ENDCHAR

STARTCHAR udieresis
ENCODING 252
SWIDTH 361 0
DWIDTH 14 0
BBX 14 40 0 -10
BITMAP
0000
0000
0000
0000
0000
3030
7878
7878
7878
3030
0000
0000
7878
7878
7878
7878
7878
7878
7878
7878
7878
7878
7878
7878
7878
78F8
7FF8
7FF8
3F78
1E78
0000
0000
0000
0000
0000
0000
0000
0000
0000
0000
ENDCHAR

STARTCHAR utilde
ENCODING 253
SWIDTH 361 0
DWIDTH 14 0
BBX 14 40 0 -10
BITMAP
0000
0000
0000
0000
0000
0000
0E30
1FF0
3FE0
31C0
0000
0000
7878
7878
7878
7878
7878
7878
7878
7878
7878
7878
7878
7878
7878
78F8
7FF8
7FF8
3F78
1E78
0000
0000
0000
0000
0000
0000
0000
0000
0000
0000
ENDCHAR

STARTCHAR umacron
ENCODING 254
SWIDTH 361 0
DWIDTH 14 0
BBX 14 40 0 -10
BITMAP
0000
0000
0000
0000
0000
0000
3FE0
3FE0
3FE0
3FE0
0000
0000
7878
7878
7878
7878
7878
7878
7878
7878
7878
7878
7878
7878
7878
78F8
7FF8
7FF8
3F78
1E78
0000
0000
0000
0000
0000
0000
0000
0000
0000
0000
ENDCHAR

STARTCHAR dotaccent
ENCODING 255
SWIDTH 361 0
DWIDTH 14 0
BBX 14 40 0 -10
BITMAP
0000
0000
0000
0300
0780
0780
0780
0300
0000
0000
0000
0000
0000
0000
0000
0000
0000
0000
0000
0000
0000
0000
0000
0000
0000
0000
0000
0000
0000
0000
0000
0000
0000
0000
0000
0000
0000
0000
0000
0000
ENDCHAR
ENDFONT
